<?xml version="1.0" encoding="iso-8859-1"?>
<!-- Generator: Adobe Illustrator 19.0.0, SVG Export Plug-In . SVG Version: 6.00 Build 0)  -->
<svg version="1.1" id="Capa_1" xmlns="http://www.w3.org/2000/svg" xmlns:xlink="http://www.w3.org/1999/xlink" x="0px" y="0px"
	 viewBox="0 0 310 310" style="enable-background:new 0 0 310 310;" xml:space="preserve">
<g id="XMLID_1020_">
	<g id="XMLID_1021_">
		<rect id="XMLID_1022_" y="50" style="fill:#FFDA44;" width="310" height="260"/>
		<g id="XMLID_1023_">
			<rect id="XMLID_1024_" y="30" style="fill:#0052B4;" width="155" height="60"/>
			<rect id="XMLID_1025_" x="155" y="30" style="fill:#006DF0;" width="155" height="60"/>
		</g>
		<rect id="XMLID_49_" x="30" y="140" style="fill:#0052B4;" width="50" height="30"/>
		<rect id="XMLID_48_" x="79.997" y="139.998" style="fill:#7C84E8;" width="200" height="30"/>
		<rect id="XMLID_47_" x="80" y="170" style="fill:#FFFFFF;" width="50" height="30"/>
		<rect id="XMLID_46_" x="130" y="170" style="fill:#78B9EB;" width="50" height="30"/>
		<rect id="XMLID_45_" x="180" y="170" style="fill:#FFFFFF;" width="50" height="30"/>
		<rect id="XMLID_44_" x="230" y="170" style="fill:#78B9EB;" width="50" height="30"/>
		<rect id="XMLID_43_" x="80" y="230" style="fill:#FFFFFF;" width="50" height="30"/>
		<rect id="XMLID_42_" x="130" y="230" style="fill:#78B9EB;" width="50" height="30"/>
		<rect id="XMLID_41_" x="180" y="230" style="fill:#FFFFFF;" width="50" height="30"/>
		<rect id="XMLID_40_" x="230" y="230" style="fill:#78B9EB;" width="50" height="30"/>
		<rect id="XMLID_39_" x="229.999" y="199.999" style="fill:#FFFFFF;" width="50" height="30"/>
		<rect id="XMLID_38_" x="179.999" y="199.999" style="fill:#78B9EB;" width="50" height="30"/>
		<rect id="XMLID_37_" x="129.999" y="199.999" style="fill:#FFFFFF;" width="50" height="30"/>
		<rect id="XMLID_36_" x="79.999" y="199.999" style="fill:#78B9EB;" width="50" height="30"/>
		<rect id="XMLID_35_" x="30.003" y="170.002" style="fill:#7C84E8;" width="50" height="90"/>
	</g>
	<g id="XMLID_1026_">
		<rect id="XMLID_33_" x="215" style="fill:#003778;" width="30" height="60"/>
		<rect id="XMLID_32_" x="65.001" style="fill:#003778;" width="30" height="60"/>
	</g>
</g>
<g>
</g>
<g>
</g>
<g>
</g>
<g>
</g>
<g>
</g>
<g>
</g>
<g>
</g>
<g>
</g>
<g>
</g>
<g>
</g>
<g>
</g>
<g>
</g>
<g>
</g>
<g>
</g>
<g>
</g>
</svg>
